<svg id="Camada_1" data-name="Camada 1" xmlns="http://www.w3.org/2000/svg" viewBox="0 0 362.15 63.72"><defs><style>.cls-1{fill:#fff;}</style></defs><title>logos</title><path class="cls-1" d="M21.19,43.89q0,4.72,3.5,4.72a6.94,6.94,0,0,0,4.2-1.6,10.28,10.28,0,0,0,3.28-5.33,81.53,81.53,0,0,1,1.28-12.14,16.2,16.2,0,0,0-8.58,4.78A13.24,13.24,0,0,0,21.19,43.89Z"/><path class="cls-1" d="M57.18,0h-51A6.18,6.18,0,0,0,0,6.18V57.53a6.19,6.19,0,0,0,6.18,6.19h51a6.18,6.18,0,0,0,6.18-6.19V6.18A6.18,6.18,0,0,0,57.18,0ZM50,46.74a16.65,16.65,0,0,1-3.34,4,19,19,0,0,1-4.57,3,11.73,11.73,0,0,1-4.91,1.16q-3.37,0-4.41-5.52a12.07,12.07,0,0,1-10.91,5.83,9.42,9.42,0,0,1-7.06-2.7,8.85,8.85,0,0,1-2.57-6.56q0-10.42,6.93-16.43Q23.9,25.37,29,25.37a14.36,14.36,0,0,1,3.68.37l1.41.37Q36.63,14.27,40,10.29a3,3,0,0,1,2.21-1.35c1.19,0,2.29.82,3.31,2.45a6.66,6.66,0,0,1,1.35,3.5,9.71,9.71,0,0,1-.43,2.88,14.55,14.55,0,0,1-1.07,2.61,24.82,24.82,0,0,1-1.44,2.33c-.53.75-1.07,1.52-1.6,2.29a96.31,96.31,0,0,0-2.63,14.84,36,36,0,0,0-.25,3.74q0,4.23,1.41,4.23,1.59,0,7.73-6.37,1.1-1.23,1.59-1.23c.74,0,1.1.94,1.1,2.82A7.63,7.63,0,0,1,50,46.74Z"/><path class="cls-1" d="M320.05,16a6.15,6.15,0,0,0,2.25-5.05,9.37,9.37,0,0,0-1.42-4.3c-.94-1.71-2-2.57-3.14-2.57a2.44,2.44,0,0,0-1.86.9,11.93,11.93,0,0,0-1.69,2.78,11,11,0,0,0-.9,4.74A9.41,9.41,0,0,0,315,17.79,7.86,7.86,0,0,0,320.05,16Z"/><path class="cls-1" d="M360.89,39c-.33,0-.87.42-1.61,1.24q-6.16,6.44-7.78,6.44c-.94,0-1.42-1.42-1.42-4.27,0-.95.09-2.21.25-3.78a96.47,96.47,0,0,1,2.66-15c.53-.79,1.07-1.56,1.6-2.33A21.23,21.23,0,0,0,356,18.93a14.48,14.48,0,0,0,1.08-2.63,9.92,9.92,0,0,0,.44-2.91,6.77,6.77,0,0,0-1.36-3.53c-1-1.65-2.14-2.48-3.34-2.48a3,3,0,0,0-2.22,1.36q-3.33,4-5.86,16l-1.42-.37a14.62,14.62,0,0,0-3.71-.37q-5.19,0-10,4.15a19.92,19.92,0,0,0-6.75,12.94c-.55.58-1.14,1.18-1.77,1.82-.9.93-1.81,1.79-2.72,2.57a3.82,3.82,0,0,1-2.25,1.18,2.45,2.45,0,0,1-1.54-.49,2.15,2.15,0,0,1-.65-1.8,39.61,39.61,0,0,1,1.42-6.75,44.84,44.84,0,0,0,1.48-8.73,8,8,0,0,0-.8-3.65c-.7-1.61-1.65-2.42-2.84-2.42q-3,0-5.43,7.93a37.58,37.58,0,0,0-1.46,8.55,7.08,7.08,0,0,0-.95.92q-6.18,6.44-7.78,6.44c-.86,0-1.3-1.71-1.3-5.14a49.44,49.44,0,0,1,.5-8,45,45,0,0,0,2.53-4.89,5.25,5.25,0,0,0-1.95-3.56,5.83,5.83,0,0,0-4.1-1.89q-1.11,0-2,1.8a9.52,9.52,0,0,0-4.63-1,18.14,18.14,0,0,0-5.4.8,16.36,16.36,0,0,0-5.53,3.35A19.87,19.87,0,0,0,269,41.07l-1.77,1.82c-.91.93-1.82,1.79-2.72,2.57a3.87,3.87,0,0,1-2.29,1.18c-.33,0-.49-.26-.49-.77a8.92,8.92,0,0,1,.37-2.17c.25-.93.53-2,.83-3.19s.59-2.48.84-3.84a26.46,26.46,0,0,0,.37-4.58,5.81,5.81,0,0,0-1.73-4.27,6.83,6.83,0,0,0-5.06-1.74,11.38,11.38,0,0,0-9.2,4.71v-.68a5.55,5.55,0,0,0-2.1-4.43,7.18,7.18,0,0,0-4.75-1.76,8.71,8.71,0,0,0-7,3.71,9.69,9.69,0,0,0-.74-1.61q-1.72-3.35-3.77-3.34c-.86,0-1.66.58-2.41,1.73a28.49,28.49,0,0,0-4.19,10.9,39.63,39.63,0,0,0-.45,4.1,9.73,9.73,0,0,0-.79.79q-6.16,6.44-7.78,6.44-1.29,0-1.29-5.14a49.65,49.65,0,0,1,.49-8,43.27,43.27,0,0,0,2.53-4.89A5.27,5.27,0,0,0,214,25.06a5.87,5.87,0,0,0-4.11-1.89c-.74,0-1.4.6-2,1.8a9.54,9.54,0,0,0-4.63-1,18.16,18.16,0,0,0-5.41.8,16.33,16.33,0,0,0-5.52,3.35,19.92,19.92,0,0,0-6.75,12.94l-1.77,1.82c-.91.93-1.81,1.79-2.72,2.57a3.83,3.83,0,0,1-2.28,1.18c-.45,0-.68-.33-.68-1a10.09,10.09,0,0,1,.4-2.51q.4-1.52,1.3-5a28.65,28.65,0,0,0,.89-7,6.71,6.71,0,0,0-2.16-5.33q-2.16-1.87-6.45-1.88a9.55,9.55,0,0,0-7.19,3q-2-4.27-4.2-4.27a3.06,3.06,0,0,0-2.41,1.73,27.62,27.62,0,0,0-4.2,10.84,41.36,41.36,0,0,0-.46,4.4c-.35.37-.77.8-1.27,1.29a6.83,6.83,0,0,1-4.69,1.92h-.37a16.17,16.17,0,0,0,1.42-6.34,7.82,7.82,0,0,0-1.48-4.93c-1-1.28-2.62-1.91-4.91-1.89a7.36,7.36,0,0,0-5.62,2.48,7.7,7.7,0,0,0-2.13,5.42A9.77,9.77,0,0,0,139,46.21a9.27,9.27,0,0,1-5,1.24,5.79,5.79,0,0,1-4.63-1.89,6.9,6.9,0,0,1-1.64-4.68,12.06,12.06,0,0,1,3.43-8.82,11.54,11.54,0,0,1,8.52-3.53q5.09,0,5.09-1,0-1.31-3.64-2.79a14.76,14.76,0,0,0-5.56-.87,15.58,15.58,0,0,0-12.28,5.33,18.15,18.15,0,0,0-4.62,11.71q-5.59,5.74-7.11,5.75c-.95,0-1.42-1.42-1.42-4.27q0-1.42.24-3.78a96.47,96.47,0,0,1,2.66-15c.53-.79,1.07-1.56,1.6-2.33a22.94,22.94,0,0,0,1.46-2.35,14.48,14.48,0,0,0,1.08-2.63,10.25,10.25,0,0,0,.43-2.91,6.77,6.77,0,0,0-1.36-3.53c-1-1.65-2.14-2.48-3.33-2.48a3,3,0,0,0-2.23,1.36q-3.33,4-5.86,16l-1.42-.37A14.57,14.57,0,0,0,99.74,24q-5.17,0-10,4.15-7,6.06-7,16.59a8.9,8.9,0,0,0,2.59,6.63,9.49,9.49,0,0,0,7.1,2.72,12.17,12.17,0,0,0,11-5.88q1,5.56,4.44,5.57a11.59,11.59,0,0,0,4.94-1.18,18.79,18.79,0,0,0,4.6-3,17.79,17.79,0,0,0,2.27-2.43A11.61,11.61,0,0,0,122,50.57q3.39,3.51,10.22,3.5T144,48.31a23.23,23.23,0,0,0,4.53.37,7.39,7.39,0,0,0,4.91-1.88l.07-.07c0,.4,0,.8,0,1.21a15.83,15.83,0,0,0,.59,5,2.15,2.15,0,0,0,2.13,1.61,4.15,4.15,0,0,0,1.42-.31q5.25-2.05,5.25-4.15a13.57,13.57,0,0,0-.65-3.1,15.53,15.53,0,0,1-.65-4.33v-.44a24.27,24.27,0,0,1,3.12-7.89q2.31-3.81,4.88-3.81c1.7,0,2.56.74,2.56,2.23a11.19,11.19,0,0,1-.31,2.66c-.21.87-.52,2.25-1,4.15a28.41,28.41,0,0,0-.64,6.26q0,7.92,4.93,7.92a.38.38,0,0,0,.25.06q2,0,9.14-4.21a17.57,17.57,0,0,0,1.41-1.48A9,9,0,0,0,188,51.35a9.33,9.33,0,0,0,7,2.72,12.56,12.56,0,0,0,6.95-1.7,13.49,13.49,0,0,0,4.2-4.37q1.11,5.76,4.38,5.76a11.63,11.63,0,0,0,4.94-1.18,18.79,18.79,0,0,0,4.6-3,17.25,17.25,0,0,0,2.5-2.73V48a15.63,15.63,0,0,0,.58,5,2.15,2.15,0,0,0,2.13,1.61,4.15,4.15,0,0,0,1.42-.31q5.25-2.05,5.25-4.15a13,13,0,0,0-.65-3.1,17.36,17.36,0,0,1-.65-4.86c0-1.75.85-4.13,2.54-7.12s3.16-4.49,4.44-4.49,1.92.7,1.92,2.11c0,.66-.06,1.51-.16,2.57s-.21,2.27-.31,3.65-.2,2.89-.31,4.52-.15,3.36-.15,5.2a12.92,12.92,0,0,0,.59,4.37,2.15,2.15,0,0,0,2.13,1.61,4.2,4.2,0,0,0,1.42-.31Q248,52.21,248,50.11a13,13,0,0,0-.65-3.1,15.51,15.51,0,0,1-.64-4.33v-.13a22,22,0,0,1,2.84-6.71c1.31-2.09,2.51-3.13,3.58-3.13q2.34,0,2.34,2a30.91,30.91,0,0,1-.68,5.26,32.55,32.55,0,0,0-.67,5.64q0,8.12,4.44,8.11a13.39,13.39,0,0,0,9.29-4.09,19.76,19.76,0,0,0,1.5-1.56,9,9,0,0,0,2.05,3.24,9.37,9.37,0,0,0,7,2.72,12.51,12.51,0,0,0,6.94-1.7,13.49,13.49,0,0,0,4.2-4.37q1.11,5.76,4.39,5.76a11.55,11.55,0,0,0,4.93-1.18,18.79,18.79,0,0,0,4.6-3,17.33,17.33,0,0,0,3-3.49q.93,7.66,6,7.67t9.29-4q.82-.8,1.5-1.59a9,9,0,0,0,2,3.23,9.47,9.47,0,0,0,7.1,2.72,12.17,12.17,0,0,0,11-5.88c.69,3.71,2.18,5.57,4.44,5.57a11.59,11.59,0,0,0,4.94-1.18,18.79,18.79,0,0,0,4.6-3,16.65,16.65,0,0,0,3.36-4,7.74,7.74,0,0,0,1.3-3.75Q362,39,360.89,39Zm-258,1.49a10.39,10.39,0,0,1-3.3,5.39,7,7,0,0,1-4.23,1.61q-3.52,0-3.52-4.77A13.36,13.36,0,0,1,95.55,33a16.25,16.25,0,0,1,8.64-4.83A81.89,81.89,0,0,0,102.89,40.45Zm40.5.68a5.55,5.55,0,0,1-1.6-4.09,3.69,3.69,0,0,1,.37-1.55c.24-.53.55-.8.92-.8.91,0,1.36.7,1.36,2.11A10.15,10.15,0,0,1,143.39,41.13Zm62.23-1.05a12.44,12.44,0,0,1-1.42,3.34q-2.46,4-6.23,4-3.53,0-3.52-4.77a13.35,13.35,0,0,1,3.7-9.66,16.26,16.26,0,0,1,8.71-4.83A49.33,49.33,0,0,0,205.62,40.08Zm83.41,0a12.76,12.76,0,0,1-1.42,3.34q-2.48,4-6.24,4c-2.34,0-3.52-1.59-3.52-4.77A13.36,13.36,0,0,1,281.56,33a16.27,16.27,0,0,1,8.7-4.83A49.88,49.88,0,0,0,289,40.08Zm53.77.37a10.39,10.39,0,0,1-3.3,5.39,7,7,0,0,1-4.23,1.61q-3.52,0-3.52-4.77a13.35,13.35,0,0,1,3.7-9.66,16.24,16.24,0,0,1,8.65-4.83A80.6,80.6,0,0,0,342.8,40.45Z"/></svg>